Coordinates
version=1
nRows=15
nColumns=34
inDegrees=no

Units are S.I. units (second, meters, Newtons, ...)
If the header above contains a line with 'inDegrees', this indicates whether rotational values are in degrees (yes) or radians (no).

endheader
time	pelvis_tilt	pelvis_list	pelvis_rotation	pelvis_tx	pelvis_ty	pelvis_tz	hip_flexion_r	hip_adduction_r	hip_rotation_r	knee_angle_r	ankle_angle_r	subtalar_angle_r	mtp_angle_r	hip_flexion_l	hip_adduction_l	hip_rotation_l	knee_angle_l	ankle_angle_l	subtalar_angle_l	mtp_angle_l	lumbar_extension	lumbar_bending	lumbar_rotation	arm_flex_r	arm_add_r	arm_rot_r	elbow_flex_r	pro_sup_r	arm_flex_l	arm_add_l	arm_rot_l	elbow_flex_l	pro_sup_l
0.88	-0.120701	0.194478	-0.0721077	0.988645	0.930088	-0.236558	0.594527	-0.21693	0.0742924	1.16928	0.149142	-0.299687	-0.0058093	0.19512	0.248693	-0.0692438	0.218294	0.305919	0.0967593	-0.026023	0.0790925	-0.180684	-0.0384844	-0.268278	-0.140008	-0.0112404	0.498995	1.68347	-0.0833798	-0.186621	-0.316397	0.74505	1.82873
0.89	-0.120019	0.185938	-0.073262	0.999469	0.930384	-0.235571	0.613787	-0.201975	0.0783323	1.132	0.165887	-0.301424	-0.00583319	0.178189	0.240359	-0.064441	0.215093	0.317509	0.0991227	-0.0259832	0.0750425	-0.170201	-0.0447326	-0.278489	-0.139677	-0.0246741	0.490735	1.68169	-0.0691484	-0.190954	-0.315739	0.766094	1.83136
0.9	-0.119547	0.177591	-0.0739579	1.01032	0.930529	-0.234593	0.630671	-0.188262	0.0799356	1.08916	0.180463	-0.301351	-0.00585708	0.161825	0.232128	-0.0602395	0.212665	0.329169	0.102061	-0.0259434	0.0713191	-0.160011	-0.0511832	-0.287544	-0.139615	-0.0372569	0.481463	1.68074	-0.0554162	-0.194987	-0.316147	0.786858	1.83432
0.91	-0.119422	0.169486	-0.073965	1.0212	0.93051	-0.233641	0.645184	-0.176073	0.0785736	1.04091	0.193438	-0.298435	-0.00588097	0.14607	0.224106	-0.0564851	0.210839	0.340797	0.105613	-0.0259037	0.0680484	-0.150201	-0.0580757	-0.295413	-0.139833	-0.0487694	0.471206	1.68076	-0.0422685	-0.198773	-0.317348	0.807259	1.83742
0.92	-0.119715	0.161608	-0.0731389	1.03213	0.930324	-0.232723	0.657279	-0.165509	0.0738522	0.987422	0.205354	-0.291468	-0.00590485	0.130896	0.216289	-0.0531359	0.209433	0.352336	0.109914	-0.0258639	0.0652843	-0.14078	-0.0655661	-0.302113	-0.14032	-0.059145	0.460047	1.68165	-0.0297596	-0.202358	-0.319079	0.827228	1.84041
0.93	-0.120426	0.153885	-0.0714287	1.04311	0.929971	-0.231837	0.666855	-0.156476	0.0655717	0.928922	0.216674	-0.279154	-0.00592873	0.11621	0.208566	-0.0502875	0.208301	0.363791	0.115219	-0.0258242	0.0630007	-0.131687	-0.0737141	-0.307694	-0.14104	-0.0684394	0.448119	1.6832	-0.0179076	-0.205784	-0.321099	0.846698	1.84309
0.94	-0.121479	0.146203	-0.0688675	1.05415	0.929457	-0.230971	0.67377	-0.148708	0.053769	0.865707	0.227738	-0.260255	-0.0059526	0.101881	0.200734	-0.0481617	0.207376	0.375222	0.121879	-0.0257844	0.0610956	-0.122804	-0.082483	-0.312236	-0.14194	-0.0768055	0.435598	1.68505	-0.0066942	-0.209083	-0.323183	0.865601	1.84528
0.95	-0.122734	0.138434	-0.0655501	1.06526	0.928791	-0.230112	0.677866	-0.14181	0.0387343	0.79821	0.238739	-0.233771	-0.00597646	0.0877538	0.192538	-0.0470613	0.206682	0.38673	0.130291	-0.0257447	0.0594099	-0.11399	-0.0917505	-0.315848	-0.142945	-0.0844711	0.422701	1.68686	0.00392938	-0.21228	-0.325116	0.883866	1.84686
0.96	-0.124004	0.130463	-0.0616052	1.07644	0.927988	-0.22924	0.679012	-0.135327	0.0209997	0.727051	0.24972	-0.19915	-0.00600032	0.073679	0.183715	-0.0473079	0.206339	0.398423	0.14082	-0.025705	0.0577497	-0.105106	-0.101329	-0.31866	-0.143969	-0.0917149	0.409681	1.6883	0.0140332	-0.215395	-0.326682	0.901421	1.84776
0.97	-0.125072	0.122185	-0.0571705	1.08771	0.927064	-0.228334	0.677137	-0.128798	0.00129367	0.653082	0.260586	-0.156479	-0.00602417	0.0595213	0.17403	-0.049181	0.206544	0.410398	0.153736	-0.0256653	0.0559097	-0.0960321	-0.110993	-0.320823	-0.144921	-0.0988335	0.396811	1.68913	0.0236962	-0.218443	-0.327666	0.918195	1.84797
0.98	-0.125716	0.113519	-0.0523751	1.09909	0.926042	-0.227376	0.67226	-0.12181	-0.0195301	0.577425	0.271148	-0.106627	-0.00604801	0.04517	0.16329	-0.0528689	0.207546	0.422718	0.169151	-0.0256256	0.0536941	-0.086672	-0.120505	-0.322489	-0.145714	-0.1061	0.384363	1.6892	0.0329928	-0.221426	-0.327861	0.934122	1.84756
0.99	-0.125727	0.104406	-0.0473292	1.11059	0.924942	-0.226352	0.664528	-0.114041	-0.0405819	0.501489	0.281169	-0.0512738	-0.00607185	0.0305415	0.151373	-0.0584324	0.209599	0.435394	0.186976	-0.0255859	0.0509403	-0.0769595	-0.129638	-0.323804	-0.146282	-0.11372	0.372582	1.68846	0.0419786	-0.224338	-0.327081	0.949142	1.84664
1	-0.124933	0.0948144	-0.0421276	1.12222	0.923789	-0.225254	0.654229	-0.105294	-0.0610395	0.426965	0.290428	0.00718685	-0.00609569	0.0155757	0.138247	-0.0657839	0.212913	0.448364	0.206883	-0.0255463	0.047535	-0.0668625	-0.138194	-0.324889	-0.146587	-0.121792	0.361665	1.68696	0.0506784	-0.227153	-0.325184	0.963204	1.84536
1.01	-0.123217	0.0847566	-0.0368576	1.134	0.922604	-0.224081	0.641798	-0.0955231	-0.080258	0.355786	0.298775	0.0658911	-0.00611952	0.000225092	0.123979	-0.0746835	0.217607	0.461472	0.228297	-0.0255066	0.0434235	-0.0563834	-0.14601	-0.325829	-0.146636	-0.130281	0.351741	1.68479	0.0590752	-0.229824	-0.322095	0.976263	1.84389
1.02	-0.120534	0.0742964	-0.0316087	1.14594	0.921409	-0.222835	0.627805	-0.0848337	-0.0978714	0.290039	0.306157	0.121851	-0.00614335	-0.0155519	0.108748	-0.0847441	0.223666	0.474456	0.250407	-0.025467	0.0386194	-0.0455557	-0.152966	-0.326667	-0.146482	-0.13902	0.342865	1.68209	0.0671035	-0.232278	-0.317819	0.988281	1.84242
